<?xml version="1.0" encoding="UTF-8" standalone="no"?>
<!DOCTYPE svg PUBLIC "-//W3C//DTD SVG 1.1//EN"
 "http://www.w3.org/Graphics/SVG/1.1/DTD/svg11.dtd">
<!-- Generated by graphviz version 2.47.0 (20210316.0004)
 -->
<!-- Title: dependencies Pages: 1 -->
<svg width="504pt" height="211pt"
 viewBox="0.00 0.00 504.00 211.00" xmlns="http://www.w3.org/2000/svg" xmlns:xlink="http://www.w3.org/1999/xlink">
<g id="graph0" class="graph" transform="scale(1 1) rotate(0) translate(4 207)">
<title>dependencies</title>
<polygon fill="white" stroke="transparent" points="-4,4 -4,-207 500,-207 500,4 -4,4"/>
<text text-anchor="start" x="227.01" y="-42.4" font-family="Times-12" font-weight="bold" font-size="14.00">Legend</text>
<polygon fill="#ffffb3" stroke="transparent" points="14,-10 14,-30 34,-30 34,-10 14,-10"/>
<text text-anchor="start" x="37.63" y="-15.4" font-family="Times-12" font-size="14.00"> &#160;Declarations</text>
<polygon fill="#8dd3c7" stroke="transparent" points="127,-10 127,-30 147,-30 147,-10 127,-10"/>
<text text-anchor="start" x="150.73" y="-15.4" font-family="Times-12" font-size="14.00"> &#160;Module</text>
<polygon fill="#80b1d3" stroke="transparent" points="213,-10 213,-30 233,-30 233,-10 213,-10"/>
<text text-anchor="start" x="236.78" y="-15.4" font-family="Times-12" font-size="14.00"> &#160;Bootstrap</text>
<polygon fill="#fdb462" stroke="transparent" points="310,-10 310,-30 330,-30 330,-10 310,-10"/>
<text text-anchor="start" x="333.67" y="-15.4" font-family="Times-12" font-size="14.00"> &#160;Providers</text>
<polygon fill="#fb8072" stroke="transparent" points="406,-10 406,-30 426,-30 426,-10 406,-10"/>
<text text-anchor="start" x="429.73" y="-15.4" font-family="Times-12" font-size="14.00"> &#160;Exports</text>
<g id="clust1" class="cluster">
<title>cluster_BookPageModule</title>
<polygon fill="none" stroke="black" stroke-dasharray="1,5" points="44,-70 44,-195 452,-195 452,-70 44,-70"/>
</g>
<g id="clust2" class="cluster">
<title>cluster_BookPageModule_declarations</title>
<polygon fill="none" stroke="black" points="354,-78 354,-130 444,-130 444,-78 354,-78"/>
</g>
<g id="clust4" class="cluster">
<title>cluster_BookPageModule_imports</title>
<polygon fill="none" stroke="black" points="52,-78 52,-130 346,-130 346,-78 52,-78"/>
</g>
<!-- BookPage -->
<g id="node1" class="node">
<title>BookPage</title>
<polygon fill="#ffffb3" stroke="black" points="435.55,-122 362.45,-122 362.45,-86 435.55,-86 435.55,-122"/>
<text text-anchor="middle" x="399" y="-99.8" font-family="Times,serif" font-size="14.00">BookPage</text>
</g>
<!-- BookPageModule -->
<g id="node2" class="node">
<title>BookPageModule</title>
<polygon fill="#8dd3c7" stroke="black" points="315.6,-187 312.6,-191 291.6,-191 288.6,-187 198.4,-187 198.4,-151 315.6,-151 315.6,-187"/>
<text text-anchor="middle" x="257" y="-164.8" font-family="Times,serif" font-size="14.00">BookPageModule</text>
</g>
<!-- BookPage&#45;&gt;BookPageModule -->
<g id="edge1" class="edge">
<title>BookPage&#45;&gt;BookPageModule</title>
<path fill="none" stroke="black" d="M399,-122.11C399,-141.34 399,-169 399,-169 399,-169 325.58,-169 325.58,-169"/>
<polygon fill="black" stroke="black" points="325.58,-165.5 315.58,-169 325.58,-172.5 325.58,-165.5"/>
</g>
<!-- BookPageRoutingModule -->
<g id="node3" class="node">
<title>BookPageRoutingModule</title>
<polygon fill="#8dd3c7" stroke="black" points="338.22,-122 335.22,-126 314.22,-126 311.22,-122 175.78,-122 175.78,-86 338.22,-86 338.22,-122"/>
<text text-anchor="middle" x="257" y="-99.8" font-family="Times,serif" font-size="14.00">BookPageRoutingModule</text>
</g>
<!-- BookPageRoutingModule&#45;&gt;BookPageModule -->
<g id="edge2" class="edge">
<title>BookPageRoutingModule&#45;&gt;BookPageModule</title>
<path fill="none" stroke="black" d="M257,-122.11C257,-122.11 257,-140.99 257,-140.99"/>
<polygon fill="black" stroke="black" points="253.5,-140.99 257,-150.99 260.5,-140.99 253.5,-140.99"/>
</g>
<!-- SharedModule -->
<g id="node4" class="node">
<title>SharedModule</title>
<polygon fill="#8dd3c7" stroke="black" points="158.42,-122 155.42,-126 134.42,-126 131.42,-122 59.58,-122 59.58,-86 158.42,-86 158.42,-122"/>
<text text-anchor="middle" x="109" y="-99.8" font-family="Times,serif" font-size="14.00">SharedModule</text>
</g>
<!-- SharedModule&#45;&gt;BookPageModule -->
<g id="edge3" class="edge">
<title>SharedModule&#45;&gt;BookPageModule</title>
<path fill="none" stroke="black" d="M109,-122.11C109,-141.34 109,-169 109,-169 109,-169 188.08,-169 188.08,-169"/>
<polygon fill="black" stroke="black" points="188.08,-172.5 198.08,-169 188.08,-165.5 188.08,-172.5"/>
</g>
</g>
</svg>
