<?xml version="1.0" encoding="UTF-8" standalone="no"?>
<!DOCTYPE svg PUBLIC "-//W3C//DTD SVG 1.1//EN"
 "http://www.w3.org/Graphics/SVG/1.1/DTD/svg11.dtd">
<!-- Generated by graphviz version 2.47.0 (20210316.0004)
 -->
<!-- Title: dependencies Pages: 1 -->
<svg width="505pt" height="211pt"
 viewBox="0.00 0.00 505.00 211.00" xmlns="http://www.w3.org/2000/svg" xmlns:xlink="http://www.w3.org/1999/xlink">
<g id="graph0" class="graph" transform="scale(1 1) rotate(0) translate(4 207)">
<title>dependencies</title>
<polygon fill="white" stroke="transparent" points="-4,4 -4,-207 501,-207 501,4 -4,4"/>
<text text-anchor="start" x="227.51" y="-42.4" font-family="Times-12" font-weight="bold" font-size="14.00">Legend</text>
<polygon fill="#ffffb3" stroke="transparent" points="14.5,-10 14.5,-30 34.5,-30 34.5,-10 14.5,-10"/>
<text text-anchor="start" x="38.13" y="-15.4" font-family="Times-12" font-size="14.00"> &#160;Declarations</text>
<polygon fill="#8dd3c7" stroke="transparent" points="127.5,-10 127.5,-30 147.5,-30 147.5,-10 127.5,-10"/>
<text text-anchor="start" x="151.23" y="-15.4" font-family="Times-12" font-size="14.00"> &#160;Module</text>
<polygon fill="#80b1d3" stroke="transparent" points="213.5,-10 213.5,-30 233.5,-30 233.5,-10 213.5,-10"/>
<text text-anchor="start" x="237.28" y="-15.4" font-family="Times-12" font-size="14.00"> &#160;Bootstrap</text>
<polygon fill="#fdb462" stroke="transparent" points="310.5,-10 310.5,-30 330.5,-30 330.5,-10 310.5,-10"/>
<text text-anchor="start" x="334.17" y="-15.4" font-family="Times-12" font-size="14.00"> &#160;Providers</text>
<polygon fill="#fb8072" stroke="transparent" points="406.5,-10 406.5,-30 426.5,-30 426.5,-10 406.5,-10"/>
<text text-anchor="start" x="430.23" y="-15.4" font-family="Times-12" font-size="14.00"> &#160;Exports</text>
<g id="clust1" class="cluster">
<title>cluster_AccessDeniedPageModule</title>
<polygon fill="none" stroke="black" stroke-dasharray="1,5" points="8,-70 8,-195 489,-195 489,-70 8,-70"/>
</g>
<g id="clust4" class="cluster">
<title>cluster_AccessDeniedPageModule_imports</title>
<polygon fill="none" stroke="black" points="164,-78 164,-130 481,-130 481,-78 164,-78"/>
</g>
<g id="clust2" class="cluster">
<title>cluster_AccessDeniedPageModule_declarations</title>
<polygon fill="none" stroke="black" points="16,-78 16,-130 156,-130 156,-78 16,-78"/>
</g>
<!-- AccessDeniedPage -->
<g id="node1" class="node">
<title>AccessDeniedPage</title>
<polygon fill="#ffffb3" stroke="black" points="147.78,-122 24.22,-122 24.22,-86 147.78,-86 147.78,-122"/>
<text text-anchor="middle" x="86" y="-99.8" font-family="Times,serif" font-size="14.00">AccessDeniedPage</text>
</g>
<!-- AccessDeniedPageModule -->
<g id="node2" class="node">
<title>AccessDeniedPageModule</title>
<polygon fill="#8dd3c7" stroke="black" points="304.33,-187 301.33,-191 280.33,-191 277.33,-187 137.67,-187 137.67,-151 304.33,-151 304.33,-187"/>
<text text-anchor="middle" x="221" y="-164.8" font-family="Times,serif" font-size="14.00">AccessDeniedPageModule</text>
</g>
<!-- AccessDeniedPage&#45;&gt;AccessDeniedPageModule -->
<g id="edge1" class="edge">
<title>AccessDeniedPage&#45;&gt;AccessDeniedPageModule</title>
<path fill="none" stroke="black" d="M142.61,-122.11C142.61,-122.11 142.61,-140.99 142.61,-140.99"/>
<polygon fill="black" stroke="black" points="139.11,-140.99 142.61,-150.99 146.11,-140.99 139.11,-140.99"/>
</g>
<!-- AccessDeniedRoutingModule -->
<g id="node3" class="node">
<title>AccessDeniedRoutingModule</title>
<polygon fill="#8dd3c7" stroke="black" points="473.23,-122 470.23,-126 449.23,-126 446.23,-122 288.77,-122 288.77,-86 473.23,-86 473.23,-122"/>
<text text-anchor="middle" x="381" y="-99.8" font-family="Times,serif" font-size="14.00">AccessDeniedRoutingModule</text>
</g>
<!-- AccessDeniedRoutingModule&#45;&gt;AccessDeniedPageModule -->
<g id="edge2" class="edge">
<title>AccessDeniedRoutingModule&#45;&gt;AccessDeniedPageModule</title>
<path fill="none" stroke="black" d="M296.52,-122.11C296.52,-122.11 296.52,-140.99 296.52,-140.99"/>
<polygon fill="black" stroke="black" points="293.02,-140.99 296.52,-150.99 300.02,-140.99 293.02,-140.99"/>
</g>
<!-- SharedModule -->
<g id="node4" class="node">
<title>SharedModule</title>
<polygon fill="#8dd3c7" stroke="black" points="270.42,-122 267.42,-126 246.42,-126 243.42,-122 171.58,-122 171.58,-86 270.42,-86 270.42,-122"/>
<text text-anchor="middle" x="221" y="-99.8" font-family="Times,serif" font-size="14.00">SharedModule</text>
</g>
<!-- SharedModule&#45;&gt;AccessDeniedPageModule -->
<g id="edge3" class="edge">
<title>SharedModule&#45;&gt;AccessDeniedPageModule</title>
<path fill="none" stroke="black" d="M221,-122.11C221,-122.11 221,-140.99 221,-140.99"/>
<polygon fill="black" stroke="black" points="217.5,-140.99 221,-150.99 224.5,-140.99 217.5,-140.99"/>
</g>
</g>
</svg>
