<?xml version="1.0" encoding="UTF-8" standalone="no"?>
<!DOCTYPE svg PUBLIC "-//W3C//DTD SVG 1.1//EN"
 "http://www.w3.org/Graphics/SVG/1.1/DTD/svg11.dtd">
<!-- Generated by graphviz version 2.47.0 (20210316.0004)
 -->
<!-- Title: dependencies Pages: 1 -->
<svg width="505pt" height="211pt"
 viewBox="0.00 0.00 505.00 211.00" xmlns="http://www.w3.org/2000/svg" xmlns:xlink="http://www.w3.org/1999/xlink">
<g id="graph0" class="graph" transform="scale(1 1) rotate(0) translate(4 207)">
<title>dependencies</title>
<polygon fill="white" stroke="transparent" points="-4,4 -4,-207 501,-207 501,4 -4,4"/>
<text text-anchor="start" x="227.51" y="-42.4" font-family="Times-12" font-weight="bold" font-size="14.00">Legend</text>
<polygon fill="#ffffb3" stroke="transparent" points="14.5,-10 14.5,-30 34.5,-30 34.5,-10 14.5,-10"/>
<text text-anchor="start" x="38.13" y="-15.4" font-family="Times-12" font-size="14.00"> &#160;Declarations</text>
<polygon fill="#8dd3c7" stroke="transparent" points="127.5,-10 127.5,-30 147.5,-30 147.5,-10 127.5,-10"/>
<text text-anchor="start" x="151.23" y="-15.4" font-family="Times-12" font-size="14.00"> &#160;Module</text>
<polygon fill="#80b1d3" stroke="transparent" points="213.5,-10 213.5,-30 233.5,-30 233.5,-10 213.5,-10"/>
<text text-anchor="start" x="237.28" y="-15.4" font-family="Times-12" font-size="14.00"> &#160;Bootstrap</text>
<polygon fill="#fdb462" stroke="transparent" points="310.5,-10 310.5,-30 330.5,-30 330.5,-10 310.5,-10"/>
<text text-anchor="start" x="334.17" y="-15.4" font-family="Times-12" font-size="14.00"> &#160;Providers</text>
<polygon fill="#fb8072" stroke="transparent" points="406.5,-10 406.5,-30 426.5,-30 426.5,-10 406.5,-10"/>
<text text-anchor="start" x="430.23" y="-15.4" font-family="Times-12" font-size="14.00"> &#160;Exports</text>
<g id="clust1" class="cluster">
<title>cluster_AccessDeniedPageModule</title>
<polygon fill="none" stroke="black" stroke-dasharray="1,5" points="8,-70 8,-195 489,-195 489,-70 8,-70"/>
</g>
<g id="clust2" class="cluster">
<title>cluster_AccessDeniedPageModule_declarations</title>
<polygon fill="none" stroke="black" points="341,-78 341,-130 481,-130 481,-78 341,-78"/>
</g>
<g id="clust4" class="cluster">
<title>cluster_AccessDeniedPageModule_imports</title>
<polygon fill="none" stroke="black" points="16,-78 16,-130 333,-130 333,-78 16,-78"/>
</g>
<!-- AccessDeniedPage -->
<g id="node1" class="node">
<title>AccessDeniedPage</title>
<polygon fill="#ffffb3" stroke="black" points="472.78,-122 349.22,-122 349.22,-86 472.78,-86 472.78,-122"/>
<text text-anchor="middle" x="411" y="-99.8" font-family="Times,serif" font-size="14.00">AccessDeniedPage</text>
</g>
<!-- AccessDeniedPageModule -->
<g id="node2" class="node">
<title>AccessDeniedPageModule</title>
<polygon fill="#8dd3c7" stroke="black" points="316.33,-187 313.33,-191 292.33,-191 289.33,-187 149.67,-187 149.67,-151 316.33,-151 316.33,-187"/>
<text text-anchor="middle" x="233" y="-164.8" font-family="Times,serif" font-size="14.00">AccessDeniedPageModule</text>
</g>
<!-- AccessDeniedPage&#45;&gt;AccessDeniedPageModule -->
<g id="edge1" class="edge">
<title>AccessDeniedPage&#45;&gt;AccessDeniedPageModule</title>
<path fill="none" stroke="black" d="M411,-122.11C411,-141.34 411,-169 411,-169 411,-169 326.53,-169 326.53,-169"/>
<polygon fill="black" stroke="black" points="326.53,-165.5 316.53,-169 326.53,-172.5 326.53,-165.5"/>
</g>
<!-- AccessDeniedRoutingModule -->
<g id="node3" class="node">
<title>AccessDeniedRoutingModule</title>
<polygon fill="#8dd3c7" stroke="black" points="325.23,-122 322.23,-126 301.23,-126 298.23,-122 140.77,-122 140.77,-86 325.23,-86 325.23,-122"/>
<text text-anchor="middle" x="233" y="-99.8" font-family="Times,serif" font-size="14.00">AccessDeniedRoutingModule</text>
</g>
<!-- AccessDeniedRoutingModule&#45;&gt;AccessDeniedPageModule -->
<g id="edge2" class="edge">
<title>AccessDeniedRoutingModule&#45;&gt;AccessDeniedPageModule</title>
<path fill="none" stroke="black" d="M233,-122.11C233,-122.11 233,-140.99 233,-140.99"/>
<polygon fill="black" stroke="black" points="229.5,-140.99 233,-150.99 236.5,-140.99 229.5,-140.99"/>
</g>
<!-- SharedModule -->
<g id="node4" class="node">
<title>SharedModule</title>
<polygon fill="#8dd3c7" stroke="black" points="122.42,-122 119.42,-126 98.42,-126 95.42,-122 23.58,-122 23.58,-86 122.42,-86 122.42,-122"/>
<text text-anchor="middle" x="73" y="-99.8" font-family="Times,serif" font-size="14.00">SharedModule</text>
</g>
<!-- SharedModule&#45;&gt;AccessDeniedPageModule -->
<g id="edge3" class="edge">
<title>SharedModule&#45;&gt;AccessDeniedPageModule</title>
<path fill="none" stroke="black" d="M73,-122.11C73,-141.34 73,-169 73,-169 73,-169 139.25,-169 139.25,-169"/>
<polygon fill="black" stroke="black" points="139.25,-172.5 149.25,-169 139.25,-165.5 139.25,-172.5"/>
</g>
</g>
</svg>
