<?xml version="1.0" encoding="UTF-8" standalone="no"?>
<!DOCTYPE svg PUBLIC "-//W3C//DTD SVG 1.1//EN"
 "http://www.w3.org/Graphics/SVG/1.1/DTD/svg11.dtd">
<!-- Generated by graphviz version 2.47.0 (20210316.0004)
 -->
<!-- Title: dependencies Pages: 1 -->
<svg width="504pt" height="211pt"
 viewBox="0.00 0.00 504.00 211.00" xmlns="http://www.w3.org/2000/svg" xmlns:xlink="http://www.w3.org/1999/xlink">
<g id="graph0" class="graph" transform="scale(1 1) rotate(0) translate(4 207)">
<title>dependencies</title>
<polygon fill="white" stroke="transparent" points="-4,4 -4,-207 500,-207 500,4 -4,4"/>
<text text-anchor="start" x="227.01" y="-42.4" font-family="Times-12" font-weight="bold" font-size="14.00">Legend</text>
<polygon fill="#ffffb3" stroke="transparent" points="14,-10 14,-30 34,-30 34,-10 14,-10"/>
<text text-anchor="start" x="37.63" y="-15.4" font-family="Times-12" font-size="14.00"> &#160;Declarations</text>
<polygon fill="#8dd3c7" stroke="transparent" points="127,-10 127,-30 147,-30 147,-10 127,-10"/>
<text text-anchor="start" x="150.73" y="-15.4" font-family="Times-12" font-size="14.00"> &#160;Module</text>
<polygon fill="#80b1d3" stroke="transparent" points="213,-10 213,-30 233,-30 233,-10 213,-10"/>
<text text-anchor="start" x="236.78" y="-15.4" font-family="Times-12" font-size="14.00"> &#160;Bootstrap</text>
<polygon fill="#fdb462" stroke="transparent" points="310,-10 310,-30 330,-30 330,-10 310,-10"/>
<text text-anchor="start" x="333.67" y="-15.4" font-family="Times-12" font-size="14.00"> &#160;Providers</text>
<polygon fill="#fb8072" stroke="transparent" points="406,-10 406,-30 426,-30 426,-10 406,-10"/>
<text text-anchor="start" x="429.73" y="-15.4" font-family="Times-12" font-size="14.00"> &#160;Exports</text>
<g id="clust1" class="cluster">
<title>cluster_NotFoundPageModule</title>
<polygon fill="none" stroke="black" stroke-dasharray="1,5" points="17.5,-70 17.5,-195 478.5,-195 478.5,-70 17.5,-70"/>
</g>
<g id="clust2" class="cluster">
<title>cluster_NotFoundPageModule_declarations</title>
<polygon fill="none" stroke="black" points="354.5,-78 354.5,-130 470.5,-130 470.5,-78 354.5,-78"/>
</g>
<g id="clust4" class="cluster">
<title>cluster_NotFoundPageModule_imports</title>
<polygon fill="none" stroke="black" points="25.5,-78 25.5,-130 346.5,-130 346.5,-78 25.5,-78"/>
</g>
<!-- NotFoundPage -->
<g id="node1" class="node">
<title>NotFoundPage</title>
<polygon fill="#ffffb3" stroke="black" points="462.49,-122 362.51,-122 362.51,-86 462.49,-86 462.49,-122"/>
<text text-anchor="middle" x="412.5" y="-99.8" font-family="Times,serif" font-size="14.00">NotFoundPage</text>
</g>
<!-- NotFoundPageModule -->
<g id="node2" class="node">
<title>NotFoundPageModule</title>
<polygon fill="#8dd3c7" stroke="black" points="316.04,-187 313.04,-191 292.04,-191 289.04,-187 172.96,-187 172.96,-151 316.04,-151 316.04,-187"/>
<text text-anchor="middle" x="244.5" y="-164.8" font-family="Times,serif" font-size="14.00">NotFoundPageModule</text>
</g>
<!-- NotFoundPage&#45;&gt;NotFoundPageModule -->
<g id="edge1" class="edge">
<title>NotFoundPage&#45;&gt;NotFoundPageModule</title>
<path fill="none" stroke="black" d="M412.5,-122.11C412.5,-141.34 412.5,-169 412.5,-169 412.5,-169 326.23,-169 326.23,-169"/>
<polygon fill="black" stroke="black" points="326.23,-165.5 316.23,-169 326.23,-172.5 326.23,-165.5"/>
</g>
<!-- NotFoundPageRoutingModule -->
<g id="node3" class="node">
<title>NotFoundPageRoutingModule</title>
<polygon fill="#8dd3c7" stroke="black" points="338.66,-122 335.66,-126 314.66,-126 311.66,-122 150.34,-122 150.34,-86 338.66,-86 338.66,-122"/>
<text text-anchor="middle" x="244.5" y="-99.8" font-family="Times,serif" font-size="14.00">NotFoundPageRoutingModule</text>
</g>
<!-- NotFoundPageRoutingModule&#45;&gt;NotFoundPageModule -->
<g id="edge2" class="edge">
<title>NotFoundPageRoutingModule&#45;&gt;NotFoundPageModule</title>
<path fill="none" stroke="black" d="M244.5,-122.11C244.5,-122.11 244.5,-140.99 244.5,-140.99"/>
<polygon fill="black" stroke="black" points="241,-140.99 244.5,-150.99 248,-140.99 241,-140.99"/>
</g>
<!-- SharedModule -->
<g id="node4" class="node">
<title>SharedModule</title>
<polygon fill="#8dd3c7" stroke="black" points="131.92,-122 128.92,-126 107.92,-126 104.92,-122 33.08,-122 33.08,-86 131.92,-86 131.92,-122"/>
<text text-anchor="middle" x="82.5" y="-99.8" font-family="Times,serif" font-size="14.00">SharedModule</text>
</g>
<!-- SharedModule&#45;&gt;NotFoundPageModule -->
<g id="edge3" class="edge">
<title>SharedModule&#45;&gt;NotFoundPageModule</title>
<path fill="none" stroke="black" d="M82.5,-122.11C82.5,-141.34 82.5,-169 82.5,-169 82.5,-169 162.5,-169 162.5,-169"/>
<polygon fill="black" stroke="black" points="162.5,-172.5 172.5,-169 162.5,-165.5 162.5,-172.5"/>
</g>
</g>
</svg>
