<?xml version="1.0" encoding="UTF-8" standalone="no"?>
<!DOCTYPE svg PUBLIC "-//W3C//DTD SVG 1.1//EN"
 "http://www.w3.org/Graphics/SVG/1.1/DTD/svg11.dtd">
<!-- Generated by graphviz version 2.47.0 (20210316.0004)
 -->
<!-- Title: dependencies Pages: 1 -->
<svg width="504pt" height="211pt"
 viewBox="0.00 0.00 504.00 211.00" xmlns="http://www.w3.org/2000/svg" xmlns:xlink="http://www.w3.org/1999/xlink">
<g id="graph0" class="graph" transform="scale(1 1) rotate(0) translate(4 207)">
<title>dependencies</title>
<polygon fill="white" stroke="transparent" points="-4,4 -4,-207 500,-207 500,4 -4,4"/>
<text text-anchor="start" x="227.01" y="-42.4" font-family="Times-12" font-weight="bold" font-size="14.00">Legend</text>
<polygon fill="#ffffb3" stroke="transparent" points="14,-10 14,-30 34,-30 34,-10 14,-10"/>
<text text-anchor="start" x="37.63" y="-15.4" font-family="Times-12" font-size="14.00"> &#160;Declarations</text>
<polygon fill="#8dd3c7" stroke="transparent" points="127,-10 127,-30 147,-30 147,-10 127,-10"/>
<text text-anchor="start" x="150.73" y="-15.4" font-family="Times-12" font-size="14.00"> &#160;Module</text>
<polygon fill="#80b1d3" stroke="transparent" points="213,-10 213,-30 233,-30 233,-10 213,-10"/>
<text text-anchor="start" x="236.78" y="-15.4" font-family="Times-12" font-size="14.00"> &#160;Bootstrap</text>
<polygon fill="#fdb462" stroke="transparent" points="310,-10 310,-30 330,-30 330,-10 310,-10"/>
<text text-anchor="start" x="333.67" y="-15.4" font-family="Times-12" font-size="14.00"> &#160;Providers</text>
<polygon fill="#fb8072" stroke="transparent" points="406,-10 406,-30 426,-30 426,-10 406,-10"/>
<text text-anchor="start" x="429.73" y="-15.4" font-family="Times-12" font-size="14.00"> &#160;Exports</text>
<g id="clust1" class="cluster">
<title>cluster_BookingsPageModule</title>
<polygon fill="none" stroke="black" stroke-dasharray="1,5" points="21,-70 21,-195 475,-195 475,-70 21,-70"/>
</g>
<g id="clust4" class="cluster">
<title>cluster_BookingsPageModule_imports</title>
<polygon fill="none" stroke="black" points="149,-78 149,-130 467,-130 467,-78 149,-78"/>
</g>
<g id="clust2" class="cluster">
<title>cluster_BookingsPageModule_declarations</title>
<polygon fill="none" stroke="black" points="29,-78 29,-130 141,-130 141,-78 29,-78"/>
</g>
<!-- BookingsPage -->
<g id="node1" class="node">
<title>BookingsPage</title>
<polygon fill="#ffffb3" stroke="black" points="133.38,-122 36.62,-122 36.62,-86 133.38,-86 133.38,-122"/>
<text text-anchor="middle" x="85" y="-99.8" font-family="Times,serif" font-size="14.00">BookingsPage</text>
</g>
<!-- BookingsPageModule -->
<g id="node2" class="node">
<title>BookingsPageModule</title>
<polygon fill="#8dd3c7" stroke="black" points="276.43,-187 273.43,-191 252.43,-191 249.43,-187 135.57,-187 135.57,-151 276.43,-151 276.43,-187"/>
<text text-anchor="middle" x="206" y="-164.8" font-family="Times,serif" font-size="14.00">BookingsPageModule</text>
</g>
<!-- BookingsPage&#45;&gt;BookingsPageModule -->
<g id="edge1" class="edge">
<title>BookingsPage&#45;&gt;BookingsPageModule</title>
<path fill="none" stroke="black" d="M133.59,-104C141.03,-104 146.29,-104 146.29,-104 146.29,-104 146.29,-140.89 146.29,-140.89"/>
<polygon fill="black" stroke="black" points="142.79,-140.89 146.29,-150.89 149.79,-140.89 142.79,-140.89"/>
</g>
<!-- BookingsPageRoutingModule -->
<g id="node3" class="node">
<title>BookingsPageRoutingModule</title>
<polygon fill="#8dd3c7" stroke="black" points="458.55,-122 455.55,-126 434.55,-126 431.55,-122 273.45,-122 273.45,-86 458.55,-86 458.55,-122"/>
<text text-anchor="middle" x="366" y="-99.8" font-family="Times,serif" font-size="14.00">BookingsPageRoutingModule</text>
</g>
<!-- BookingsPageRoutingModule&#45;&gt;BookingsPageModule -->
<g id="edge2" class="edge">
<title>BookingsPageRoutingModule&#45;&gt;BookingsPageModule</title>
<path fill="none" stroke="black" d="M273.25,-104C267.65,-104 264.22,-104 264.22,-104 264.22,-104 264.22,-140.89 264.22,-140.89"/>
<polygon fill="black" stroke="black" points="260.72,-140.89 264.22,-150.89 267.72,-140.89 260.72,-140.89"/>
</g>
<!-- SharedModule -->
<g id="node4" class="node">
<title>SharedModule</title>
<polygon fill="#8dd3c7" stroke="black" points="255.42,-122 252.42,-126 231.42,-126 228.42,-122 156.58,-122 156.58,-86 255.42,-86 255.42,-122"/>
<text text-anchor="middle" x="206" y="-99.8" font-family="Times,serif" font-size="14.00">SharedModule</text>
</g>
<!-- SharedModule&#45;&gt;BookingsPageModule -->
<g id="edge3" class="edge">
<title>SharedModule&#45;&gt;BookingsPageModule</title>
<path fill="none" stroke="black" d="M206,-122.11C206,-122.11 206,-140.99 206,-140.99"/>
<polygon fill="black" stroke="black" points="202.5,-140.99 206,-150.99 209.5,-140.99 202.5,-140.99"/>
</g>
</g>
</svg>
